<svg width="28" height="31" viewBox="0 0 28 31" fill="none" xmlns="http://www.w3.org/2000/svg">
<path d="M17.8889 24.8C16.8 24.8 15.8796 24.4254 15.1278 23.6762C14.3759 22.9271 14 22.01 14 20.925C14 19.84 14.3759 18.9229 15.1278 18.1737C15.8796 17.4246 16.8 17.05 17.8889 17.05C18.9778 17.05 19.8981 17.4246 20.65 18.1737C21.4018 18.9229 21.7778 19.84 21.7778 20.925C21.7778 22.01 21.4018 22.9271 20.65 23.6762C19.8981 24.4254 18.9778 24.8 17.8889 24.8ZM3.11111 31C2.25556 31 1.52289 30.6962 0.913113 30.0886C0.303336 29.481 -0.0010344 28.7515 2.64101e-06 27.9V6.2C2.64101e-06 5.3475 0.304892 4.61745 0.914669 4.00985C1.52445 3.40225 2.25659 3.09897 3.11111 3.1H4.66667V0H7.77778V3.1H20.2222V0H23.3333V3.1H24.8889C25.7444 3.1 26.4771 3.4038 27.0869 4.0114C27.6967 4.619 28.001 5.34853 28 6.2V27.9C28 28.7525 27.6951 29.4825 27.0853 30.0901C26.4756 30.6977 25.7434 31.001 24.8889 31H3.11111ZM3.11111 27.9H24.8889V12.4H3.11111V27.9ZM3.11111 9.3H24.8889V6.2H3.11111V9.3Z" fill="white"/>
</svg>
