<svg width="17" height="17" viewBox="0 0 17 17" fill="none" xmlns="http://www.w3.org/2000/svg">
<path d="M14.6253 8.78151L9.84406 13.5628C9.76853 13.6331 9.66863 13.6715 9.56541 13.6696C9.46219 13.6678 9.3637 13.626 9.2907 13.553C9.2177 13.48 9.17588 13.3815 9.17406 13.2783C9.17224 13.1751 9.21056 13.0752 9.28094 12.9996L13.3815 8.89839H2.65625C2.55058 8.89839 2.44923 8.85641 2.37451 8.78169C2.29979 8.70697 2.25781 8.60562 2.25781 8.49995C2.25781 8.39428 2.29979 8.29293 2.37451 8.21821C2.44923 8.14349 2.55058 8.10151 2.65625 8.10151H13.3815L9.28094 4.00026C9.21056 3.92473 9.17224 3.82483 9.17406 3.72161C9.17588 3.61839 9.2177 3.5199 9.2907 3.4469C9.3637 3.3739 9.46219 3.33208 9.56541 3.33026C9.66863 3.32844 9.76853 3.36676 9.84406 3.43714L14.6253 8.21839C14.6999 8.29309 14.7418 8.39436 14.7418 8.49995C14.7418 8.60554 14.6999 8.7068 14.6253 8.78151Z" fill="white"/>
</svg>
