<svg width="32" height="30" viewBox="0 0 32 30" fill="none" xmlns="http://www.w3.org/2000/svg">
<path d="M30.3343 4.85925L15.9557 0.0615592C15.7098 -0.0205197 15.4438 -0.0205197 15.1979 0.0615592L0.819279 4.85925C0.580692 4.93886 0.37318 5.0916 0.226138 5.29584C0.0790966 5.50008 -1.86356e-05 5.74545 3.29263e-09 5.9972V17.9914C3.29263e-09 18.3095 0.12624 18.6146 0.350949 18.8395C0.575658 19.0645 0.880428 19.1908 1.19821 19.1908C1.516 19.1908 1.82077 19.0645 2.04548 18.8395C2.27019 18.6146 2.39643 18.3095 2.39643 17.9914V7.66139L7.42743 9.33908C6.09076 11.5007 5.66571 14.105 6.2456 16.5801C6.82549 19.0553 8.36292 21.1988 10.5203 22.5402C7.82434 23.5987 5.49381 25.5133 3.78935 28.131C3.70071 28.2629 3.63914 28.4111 3.60821 28.567C3.57729 28.7229 3.57764 28.8834 3.60923 29.0392C3.64083 29.195 3.70304 29.3429 3.79225 29.4744C3.88146 29.6059 3.9959 29.7184 4.1289 29.8052C4.26191 29.892 4.41083 29.9515 4.56701 29.9803C4.72319 30.009 4.88351 30.0063 5.03867 29.9725C5.19382 29.9386 5.3407 29.8743 5.47078 29.7831C5.60085 29.6919 5.71152 29.5758 5.79636 29.4414C8.0535 25.9751 11.6182 23.9885 15.5768 23.9885C19.5354 23.9885 23.1001 25.9751 25.3572 29.4414C25.533 29.7029 25.8044 29.8846 26.113 29.9473C26.4215 30.01 26.7423 29.9486 27.0059 29.7764C27.2696 29.6043 27.455 29.3352 27.5221 29.0273C27.5891 28.7194 27.5324 28.3974 27.3642 28.131C25.6598 25.5133 23.3202 23.5987 20.6333 22.5402C22.7886 21.1989 24.3246 19.0567 24.9044 16.5834C25.4842 14.1101 25.0604 11.5076 23.7261 9.34658L30.3343 7.14264C30.5729 7.06307 30.7805 6.91035 30.9276 6.70611C31.0747 6.50187 31.1538 6.25647 31.1538 6.00469C31.1538 5.75291 31.0747 5.50752 30.9276 5.30328C30.7805 5.09904 30.5729 4.94631 30.3343 4.86674V4.85925ZM22.7661 14.3931C22.7664 15.5309 22.4972 16.6525 21.9807 17.6659C21.4641 18.6794 20.7149 19.5558 19.7944 20.2232C18.8739 20.8907 17.8085 21.3302 16.6855 21.5056C15.5625 21.6811 14.414 21.5875 13.3341 21.2326C12.2542 20.8777 11.2738 20.2715 10.4733 19.4639C9.67275 18.6562 9.07493 17.6701 8.72886 16.5864C8.38279 15.5027 8.29834 14.3523 8.48243 13.2296C8.66653 12.1068 9.11393 11.0438 9.78791 10.1277L15.1979 11.9268C15.4438 12.0089 15.7098 12.0089 15.9557 11.9268L21.3657 10.1277C22.276 11.3631 22.7668 12.858 22.7661 14.3931ZM15.5768 9.53099L4.98757 5.9972L15.5768 2.4634L26.166 5.9972L15.5768 9.53099Z" fill="white"/>
</svg>
